<svg viewBox="0 0 512 512" xmlns="http://www.w3.org/2000/svg" fill-rule="evenodd" clip-rule="evenodd" stroke-linejoin="round" stroke-miterlimit="2"><g transform="matrix(6.4 0 0 6.4 -32 -32)"><clipPath id="prefix__a"><path d="M84.062 37.188v15.624c0 17.248-14.002 31.25-31.25 31.25H37.188c-17.248 0-31.25-14.002-31.25-31.25V37.188c0-17.248 14.002-31.25 31.25-31.25h15.624c17.248 0 31.25 14.002 31.25 31.25z"/></clipPath><g clip-path="url(#prefix__a)"><path d="M5 13a8 8 0 018-8h64a8 8 0 018 8v64a8 8 0 01-8 8H13a8 8 0 01-8-8V13z" fill="url(#prefix___Linear2)" fill-rule="nonzero"/></g></g><path d="M152.08 295.512H88.07c-4.489 0-8.501-2.677-10.223-6.825a11.048 11.048 0 012.4-12.063l44.335-44.335H92.806c-8.728 0-15.805-7.077-15.805-15.804h59.03c4.49 0 8.502 2.683 10.218 6.831a11.024 11.024 0 01-2.393 12.056l-44.335 44.336h36.75c8.733 0 15.81 7.076 15.81 15.804zM435 246.119c0-16.99-13.83-30.821-30.821-30.821-9.089 0-17.275 3.96-22.92 10.243-5.644-6.282-13.83-10.243-22.918-10.243-16.991 0-30.822 13.83-30.822 30.821v49.393c8.728 0 15.804-7.077 15.804-15.804v-33.589c0-8.276 6.741-15.01 15.018-15.01 8.282 0 15.017 6.734 15.017 15.01v33.589c0 8.727 7.076 15.804 15.804 15.804v-49.393c0-8.276 6.734-15.01 15.017-15.01 8.276 0 15.017 6.734 15.017 15.01v33.589c0 8.727 7.07 15.804 15.804 15.804v-49.393zm-115.383 9.882c0 22.475-18.223 40.698-40.697 40.698-22.48 0-40.704-18.223-40.704-40.698 0-22.48 18.223-40.703 40.704-40.703 22.474 0 40.697 18.223 40.697 40.703zm-15.804 0c0-13.752-11.147-24.893-24.893-24.893-13.753 0-24.893 11.14-24.893 24.893 0 13.747 11.14 24.894 24.893 24.894 13.746 0 24.893-11.147 24.893-24.894zm-71.918 0c0 22.475-18.217 40.698-40.697 40.698-22.481 0-40.698-18.223-40.698-40.698 0-22.48 18.217-40.703 40.698-40.703 22.48 0 40.697 18.223 40.697 40.703zm-15.804 0c0-13.752-11.147-24.893-24.893-24.893-13.747 0-24.894 11.14-24.894 24.893 0 13.747 11.147 24.894 24.894 24.894 13.746 0 24.893-11.147 24.893-24.894z" fill="#fff" fill-rule="nonzero"/><defs><linearGradient id="prefix___Linear2" x1="0" y1="0" x2="1" y2="0" gradientUnits="userSpaceOnUse" gradientTransform="rotate(-60 88.792 30.85) scale(109.282)"><stop offset="0" stop-color="#0845bf"/><stop offset=".6" stop-color="#0b5cff"/><stop offset="1" stop-color="#4f90ee"/></linearGradient></defs></svg>